# xmcd
#
# Track frame offsets: 
#        150
#        15315
#        33501
#        47992
#        61843
#        79252
#        100730
#        120934
#        136789
#        155561
#        172912
#        186944
#        213621
#        233764
#        249920
#
# Disc length: 3590 seconds
#
# Revision: 0
# Processed by: cddbd v1.5.2PL0 Copyright (c) Steve Scherf et al.
# Submitted via: ExactAudioCopyFreeDBPlugin 1.0
#
DISCID=b90e040f
DTITLE=王雅洁 - DTSES小调歌后III
DYEAR=2008
DGENRE=DTSES
TTITLE0=不在回头
TTITLE1=是否
TTITLE2=问情
TTITLE3=梅兰梅兰我爱你
TTITLE4=相思河畔
TTITLE5=挥不去的思念
TTITLE6=她的背影
TTITLE7=热情的沙漠
TTITLE8=再会吧我的心上人
TTITLE9=榕树下
TTITLE10=梨山痴情花
TTITLE11=故乡的云
TTITLE12=再回首
TTITLE13=小成故事
TTITLE14=爱上一个不回家的人
EXTD=
EXTT0=
EXTT1=
EXTT2=
EXTT3=
EXTT4=
EXTT5=
EXTT6=
EXTT7=
EXTT8=
EXTT9=
EXTT10=
EXTT11=
EXTT12=
EXTT13=
EXTT14=
PLAYORDER=
